<svg xmlns="http://www.w3.org/2000/svg" xmlns:xlink="http://www.w3.org/1999/xlink" viewBox="0 0 767.34 714.96"><defs><style>.cls-1,.cls-2,.cls-3,.cls-4{fill:#e1e4f9;}.cls-1{opacity:0.08;}.cls-2{opacity:0.12;}.cls-3{opacity:0.2;}.cls-4{opacity:0.3;}.cls-5{fill:#4a2613;}.cls-6{fill:#dfd0c5;}.cls-7{fill:#dfd0c6;}.cls-25,.cls-26,.cls-8{fill:none;}.cls-8{stroke:#af7f64;}.cls-24,.cls-25,.cls-26,.cls-8{stroke-miterlimit:10;}.cls-9{fill:#ddb196;}.cls-10{fill:#bc8a76;}.cls-11{fill:#c78e74;}.cls-12{fill:#b06a46;}.cls-13{fill:url(#linear-gradient);}.cls-14{fill:url(#linear-gradient-2);}.cls-15{fill:#d9c9bc;}.cls-16{fill:url(#linear-gradient-3);}.cls-17{fill:#4c3531;}.cls-18{fill:#ac7a69;}.cls-19{fill:#dbc7bd;}.cls-20{fill:#cab9ae;}.cls-21{fill:#4b3430;}.cls-22{fill:#1c0d07;}.cls-23{fill:#de998b;}.cls-24,.cls-25{stroke:#000;}.cls-26{stroke:#ddb196;}.cls-27{fill:url(#linear-gradient-4);}.cls-28{fill:url(#linear-gradient-5);}</style><linearGradient id="linear-gradient" x1="744.32" y1="191.46" x2="774.83" y2="191.46" gradientUnits="userSpaceOnUse"><stop offset="0" stop-color="#b06a46"/><stop offset="0.47" stop-color="#e0b096"/><stop offset="0.59" stop-color="#edc2ab"/><stop offset="0.62" stop-color="#e8c3b7"/><stop offset="0.66" stop-color="#e2c5c8"/><stop offset="0.71" stop-color="#ddc7d3"/><stop offset="0.79" stop-color="#dbc8da"/><stop offset="1" stop-color="#dac8dc"/></linearGradient><linearGradient id="linear-gradient-2" x1="122.3" y1="307.99" x2="755.44" y2="299.27" gradientUnits="userSpaceOnUse"><stop offset="0.62" stop-color="#b06a46"/><stop offset="0.66" stop-color="#bf8160"/><stop offset="0.71" stop-color="#cf9b7d"/><stop offset="0.76" stop-color="#d9ab90"/><stop offset="0.79" stop-color="#ddb196"/></linearGradient><linearGradient id="linear-gradient-3" x1="635.79" y1="198.58" x2="654.72" y2="194.35" gradientUnits="userSpaceOnUse"><stop offset="0" stop-color="#dac8dc"/><stop offset="0.01" stop-color="#dfc7d0"/><stop offset="0.04" stop-color="#e5c5bf"/><stop offset="0.08" stop-color="#eac3b4"/><stop offset="0.13" stop-color="#ecc2ad"/><stop offset="0.28" stop-color="#edc2ab"/><stop offset="0.42" stop-color="#d9a489"/><stop offset="0.57" stop-color="#c78b6c"/><stop offset="0.72" stop-color="#ba7957"/><stop offset="0.86" stop-color="#b36e4a"/><stop offset="1" stop-color="#b06a46"/></linearGradient><linearGradient id="linear-gradient-4" x1="586.25" y1="708.17" x2="635.94" y2="708.17" gradientUnits="userSpaceOnUse"><stop offset="0" stop-color="#ddb196"/><stop offset="0.21" stop-color="#daad91"/><stop offset="0.44" stop-color="#d2a083"/><stop offset="0.7" stop-color="#c58c6c"/><stop offset="0.96" stop-color="#b36f4c"/><stop offset="1" stop-color="#b06a46"/></linearGradient><linearGradient id="linear-gradient-5" x1="738.51" y1="713.01" x2="794.09" y2="713.01" gradientUnits="userSpaceOnUse"><stop offset="0" stop-color="#b06a46"/><stop offset="0.16" stop-color="#b36f4c"/><stop offset="0.36" stop-color="#bc7d5b"/><stop offset="0.58" stop-color="#cb9476"/><stop offset="0.8" stop-color="#ddb196"/></linearGradient></defs><g id="Layer_5" data-name="Layer 5"><path class="cls-1" d="M697.68,742.68A356.21,356.21,0,0,1,445.8,134.6,356.21,356.21,0,0,1,949.55,638.35,353.87,353.87,0,0,1,697.68,742.68Z" transform="translate(-314.01 -30.27)"/><path class="cls-2" d="M697.68,697.68A311.2,311.2,0,0,1,477.62,166.42,311.2,311.2,0,1,1,917.73,606.53,309.16,309.16,0,0,1,697.68,697.68Z" transform="translate(-314.01 -30.27)"/><path class="cls-3" d="M697.68,652.68a266.21,266.21,0,1,1,188.23-78A264.47,264.47,0,0,1,697.68,652.68Z" transform="translate(-314.01 -30.27)"/><circle class="cls-4" cx="383.67" cy="356.21" r="221.21"/></g><g id="Layer_2" data-name="Layer 2"><path class="cls-5" d="M630.9,344.71" transform="translate(-314.01 -30.27)"/><path class="cls-6" d="M642.5,674.37S633,646.58,631.87,628.6s-5.72-50.4-5.72-52,21.53,7.08,31.88,8.71,43.32,4.09,43.32,4.09,26.69.82,33.23,0,31.61-3.27,33-5.17-3.82,22.33-6.27,33.5-8.17,42-10.08,45.5-4.9,12.26-9.53,12.53-15,.28-15.8,1.64,4.63-6.27.54-9.54-7.72-7.17-11.44-7.26-8.08.82-10.63,7c0,0-7.26-.54-10.44,2.09s-6.36,6.9-6.27,7.17-6.26-2-12.8-.81c0,0-5.36-6.27-11.63-4.18A39.54,39.54,0,0,0,652.85,677S645.41,673.92,642.5,674.37Z" transform="translate(-314.01 -30.27)"/><path class="cls-7" d="M776.92,556.21h-1l-79.67.28-71.63.26a.22.22,0,0,0,0,.08l2,22.8,1.77.4c15.33,3.44,125.35,27.41,140.61,10.53a6.62,6.62,0,0,0,1.47-2.51c7.21-23.14,8.32-31.85,8.32-31.85Zm-2.79,7.71A88.67,88.67,0,0,0,771,574.38l-49.26,2.24a79.23,79.23,0,0,1-10.89-4.3c20.71-1.73,61.79-7.25,64.35-14l.46-.56A33.4,33.4,0,0,1,774.13,563.92Z" transform="translate(-314.01 -30.27)"/><path class="cls-8" d="M786,400.83s13.93-15.08,12-28.7" transform="translate(-314.01 -30.27)"/><path class="cls-8" d="M607.36,393.42c-4.41-6-8.61-13.61-7.34-21.29" transform="translate(-314.01 -30.27)"/><path class="cls-9" d="M1031.35,698.83c.17-.35.33-.7.51-1,4.07-8.22,8.1-16.46,13.12-24.14l-7.73-30.26-71.56-28-102.44,20-40,25.43L638,691,547.23,642.3l-90.82-26.88-79.55,55.22-5.45,25.06,62.7,21.43,6.32,3.54c14.93,1.76,27.66,2.93,37.42,3.73,12.37,1,40.37,3.07,78.87,3.56,2.09,0,3.74.16,6.13.07,9.08-.36,65-2.5,70.83,0s20.34,7.24,28.33,8.7,89.36,2.54,89.36,2.54l7.68-2.27c11.7-3.44,33.09-9.66,37.46-10.44,3.21-.58,28.75-2.67,53.09-4.69,21.74-1.79,42.53-3.51,45.62-4,6.54-1.09,48.68-.37,61.75.36s38.69-6.81,38.69-6.81L1030.71,699Z" transform="translate(-314.01 -30.27)"/><path class="cls-7" d="M614.82,687.22s.27-9.53-4.9-22.61S587.85,615,587.85,615s-6.81-16.9-7.36-22.89c0,0-8.85-.41-15.66,3,0,0-9-1.77-17-.27,0,0-18.52-1.64-23.56-.41,0,0-18.12-3.54-27.38-1.64s-24-2.18-35.69-1.77a158.51,158.51,0,0,0-24.52-3c-13.35-.54-40.73,1.09-48.5,1.5s-36.37,4-41.82,6.41-15.93,6.53-20.43,14.43a67.37,67.37,0,0,0-6.4,17s-1.5,9.4-3,12.26-4.77,16.08,0,20.43a25.07,25.07,0,0,0,9.4,5.59s19.34,36,21.25,42.5S360,712.69,360,712.69l40.59,1.23s3.13-.14,7.9,3.68,15.12,2.59,15.12,2.59l-24.79-13.9q-11.92-4.5-24.52-10.21-4.35-2-8.53-4a29.89,29.89,0,0,0,4.76-3,29.42,29.42,0,0,0,2.66-2.35c1.11-1.1,6.6-5.86,17.59-15.39,17.47-15.13,26-23,33.65-27.1,14.16-7.63,27.51-15.53,39-13.22s30.78,6.54,48.63,16.35,34.32,18.93,51.35,24.11,23.84,7.36,31.74,10.08,16.75,6,17.84,6.54a3.46,3.46,0,0,0,1.91.41Z" transform="translate(-314.01 -30.27)"/><path class="cls-7" d="M819,575.61s-11.17,36.24-15.8,44.41-14.71,26.7-18,33.51a82.23,82.23,0,0,0-6.54,18.41,36.31,36.31,0,0,0,0,11.56s48.77-16.08,62.66-23.16,36.51-22.34,41.14-24.52,21.25-7.08,29.42-9.53a98.55,98.55,0,0,1,11.72-3s37.59,27,45.22,31.06,34.6,22.34,40.59,25.33,12,7.09,12,8.18-19.89,11.44-27,14.71-16.89,7.08-19.62,7.9,5.18,3,5.18,3,9.26-5.18,15-6.27,12.26-5.72,12.26-5.72,20.16,1.91,21.8,1.09,18.53-31.33,21.79-32.42a58.62,58.62,0,0,0,7.36-3.27s3.54-6.27,9-9.54,15.8-9.53,13.9-19.61-6.82-31.33-10.63-36-11.44-13.62-21-16.35-27.24-6.54-42.77-6.27-43.86,1.37-49.58,1.91-33.79,3-39.78,6.81c0,0-28.33-1.63-40.32,6,0,0-9-3-26.15,1.36,0,0-17.44-.82-22.62-.82s-3.81-7.35-3.81-7.35-1.09-6.27-2.18-7.91A23.12,23.12,0,0,0,819,575.61Z" transform="translate(-314.01 -30.27)"/><path class="cls-9" d="M849.32,409.82c-1.45,25.43-4,59.57-14.89,95.9,0,0-1.46,18.89-4.73,28.7-1.78,5.34-1.49,8.07-2.41,14.05-1,6.66-2.83,13-6.67,25.18-7.84,24.83-11.76,37.24-17.54,49.49-9.61,20.39-16,25.92-21,45.22A123.59,123.59,0,0,0,779,684.8s-3.81,2.54-11.08,12.72-21.43,33.78-30.87,36.32c0,0-3.27-6.9-12.35-4.72,0,0-32.33,14.53-35.6,16S654.62,736,654.62,736s-3.63-9.44,3.27-8.35,19.61-1.09,26.88.36,13.44,2.54,13.44,2.54-1.82,1.09,12.35-4.36S732,717.13,732,717.13s-1.45-8-6.17-10.17l-6.18,9.81s-10,9.81-14.25,9.08-11.18-6.54-5.73-12.72,15.62-18.52,18.53-20-.73-3.64-.73-3.64l5.81-6.53s2.91-5.09-.72-6.54,5.81-4.73,11.62-4.36,10.53-4.72,10.53-4.72,6.54-10.72,9.45-21.53S769.77,574,769.77,574s.51-2.26,1.25-5.16l10.67-.49,30.43-18-3.18-115.51c0,6-8.36,10.68-22.08,19.5,1.55-9.41,5.07-31.29,6.27-42.93h0c.41-4,.55-6.74.25-7.42a.36.36,0,0,0-.23-.15c-7.53-2.8-190.11,6.32-190.11,6.32-.24,18.29,1.22,31.91,2.35,37.15.82,3.85,1.9,7.72,1.9,7.72,1.05,3.73,2,6.41,2.18,7,.55,1.57,1.06,2.9,1.45,3.9,2.13,7.83,3.52,14.34,4.41,18.86,2.11,10.76,2,13.61,5.77,41.13,1.17,8.51,2.56,18.42,2.56,18.42.53,3.76,1,6.86,1.27,9,2.15,15.34,5.35,38.88,5.35,43.22,0,6.54,1.82,46.13,8.36,60.3,0,0,2.9,12,4,13.08s9.81,2.9,10.9,2.9-6.18,6.54-5.45,9.45,5.45,9.81,10.17,9.81H663s2.18,7.62,6.54,8.71l4.36,1.09,4,6.54-43.23,16.35-5.45-12.71c-2.18-5.09-17.76-17.54-18-22.75s-4.3-23.7-15.64-48.56-20.5-55.11-25.23-79.81a426,426,0,0,1-6.53-44.31c-2.89-27-7.69-49.83-10.9-65-.92-4.37-2.27-10.55-4-18-11-51.36-7.44-93.7,6.2-109.52a75.81,75.81,0,0,1,11.09-10.5c8.49-6.23,12.17-5.53,36.86-15.29,8.47-3.35,18.66-7.54,18.66-7.54,2.12-.86,4.17-1.7,6.14-2.54,17.57-7.39,29.23-13.92,30.77-24.43,1.09-7.44,1-19.34.64-29.37s-1-18.21-1-18.21,27.44,27.61,47.14,20.7,27.33-10.53,32.05-17.8c0,0-5.81,38.15,4.36,49.77a77.18,77.18,0,0,0,14.87,12.95,104,104,0,0,0,11.13,6.56A145.39,145.39,0,0,0,782.85,295c10,3.78,25.14,7.28,36.9,11.84,7.48,2.9,13.59,6.23,16.13,10.32,3.14,5.06,6.11,9.87,8.23,15.19a43.77,43.77,0,0,1,3,20.05C846.05,367.68,850.77,384.39,849.32,409.82Z" transform="translate(-314.01 -30.27)"/><path class="cls-10" d="M793.13,414h0c-.25,6-.91,11.16-1,15.09-.2,9.65-4.89,23.52-4.45,26.53a11.7,11.7,0,0,1-1.71,6.91,2.57,2.57,0,0,1-.67.77c-.77.48-.85,4.08-.19,6.61a6.91,6.91,0,0,0,.4,1.19c.79,1.77-.41,3.79-1.08,4.71-.24.32-.41.51-.41.51a4.08,4.08,0,0,0,0,2.8,4.61,4.61,0,0,0,.2.55c.63,1.51-.25,3.9-.84,5-.2.39-.38.61-.43.58s.09.11.31.5h0c.69,1.29,2.08,5.25-.18,14.47-3,12.08-5.42,52.07-5.42,52.07l-.78,1-1.24,1.51-.46.56c-2.56,6.79-43.64,12.31-64.35,14-3.59.3-6.57.49-8.63.55-12.11.34-63.42-6.22-77.31-14-.1-.69-.19-1.36-.28-2a.22.22,0,0,1,0-.08c-.94-6.68-1.62-11.36-1.62-11.36s-5.45-39.59-7.27-52.3a242.71,242.71,0,0,0-5-24.55,5.7,5.7,0,0,0-1.13-4.3,6.58,6.58,0,0,0-1.18-1.18c-2.2-1.73-4.18-9.07-5.58-18.08-.48-3.08-.89-6.34-1.22-9.65a167.74,167.74,0,0,1-.86-19.57c.41-16.7,6.47-26.55,6.47-26.55S620.12,362.79,618,348c-1.77-12.54,2.37-45.15,3.66-54.72.23-1.71.37-2.68.37-2.68l7.84-3.82c-1,.55-1.65,1.72-2.07,4-1.2,6.44-.56,21.66-1.72,55.82,0,0-.15,3.74,3,18.68s39.66,26.31,67.73,28.62S753,375.53,753,375.53s12.94-9.6,15-30.15c1.71-17.09-8-50.3-11.36-61-.64-2-1-3.26-1.08-3.41l9,5.57c1.15.71,2.23,2.25,3.25,4.4,6.91,14.61,10.63,57.37,10.32,59.92-.34,2.92,2.75,16.4,10.34,33.83a59.46,59.46,0,0,1,4.69,21.72C793.26,409,793.23,411.57,793.13,414Z" transform="translate(-314.01 -30.27)"/><path class="cls-11" d="M630.52,699.91a196.07,196.07,0,0,1-17.82-35.34c-5.62-14.22-8.55-29.48-15.21-43.29-7.06-14.65-14.69-29-20.45-44.2-4.2-11.1-8.16-23.69-7.38-35.83-.26-8.14,1.51-20.06,3.91-31.4-.21-11.87-2.08-24-4.23-35.16-3.46-18-8.65-35.54-13.19-53.25-4.36-17-7.82-34.5-6.32-52.13a120.45,120.45,0,0,1,3.78-21.16c1.26-12.63,5.88-25.89,14.38-35.23a22,22,0,0,0-5.07,2.46c-3.7,2.15-8.4,6.35-13.21,17.76A87.36,87.36,0,0,0,544,353.39a143.89,143.89,0,0,0-1.38,34.38c.25,4.67.74,11.58,1.78,19.92,1.55,12.35,3.48,21.18,4.46,25.92A401.86,401.86,0,0,1,555.43,479l5,21.94L562.65,511s-.82,18.52.82,26.15,7.91,40.32,9.13,44.68,15.93,47.95,15.93,47.95,13.08,25.61,15.8,37.05,6.54,28.88,12,33.24,13.08,15.25,15.8,21.79a29.94,29.94,0,0,0,5.17,7.9c3.19,1,5.73,3.39,9.07,4.37s6.48.91,9.39,2.22l5.25-3-.77-2.31C647.93,723.33,638.38,711.94,630.52,699.91Z" transform="translate(-314.01 -30.27)"/><path class="cls-12" d="M640.24,216.87s.74,7.61,1.27,17.68a13.44,13.44,0,0,1,12,3.47,19.36,19.36,0,0,1,3.6,4.5c4.26-.84,15.31,11,21,13,1.6.56,3.3,1,3.3,1a34.18,34.18,0,0,0,4.5.95,28.61,28.61,0,0,0,5.72.14,42.57,42.57,0,0,0,16.07-4.5,36.64,36.64,0,0,0,5.45-3.68,118.61,118.61,0,0,0,33-29.83Z" transform="translate(-314.01 -30.27)"/><path class="cls-9" d="M655.34,217.26s-4.83-7.81-8.76-7.19-5.4-4.58-8.3-12.52.84-23,.84-23l6.14,7.34,1.34-16.62a124.76,124.76,0,0,1,8-34.58c1.62-3.89,6.61-12.34,12.18-19.39s11.75-8.88,21-12.6,24.7-1.42,31.41,0,10,6.21,16.64,15.09,11.39,25.63,12.77,33.58S753,174.17,753,174.17s3-2.08,5.31-.61,3.76,10,4.6,12.81-.82,7.45-2.52,11.83-9.64,8.58-9.64,8.58h-5.1a43.89,43.89,0,0,1-3.4,10.48c-2.65,5.72-15.5,14.87-20.22,17.16s-11.91,5.91-25.7,6.48-40.95-23.64-40.95-23.64" transform="translate(-314.01 -30.27)"/><path class="cls-13" d="M749.73,170.35a43.39,43.39,0,0,1,.09,19.27c-2.89,12.15-4.33,18.22-5.07,19.46a2,2,0,0,0-.37,1.61c.63,1.85,14.93,1.89,14.93,1.89h0L764,194.05l-5.76-20.49Z" transform="translate(-314.01 -30.27)"/><path class="cls-14" d="M590,302.87c2.69-1.08,5.33-2,7.79-2.75,0,0-3.6,1-8.55,2.66C589.49,302.81,589.75,302.83,590,302.87Z" transform="translate(-314.01 -30.27)"/><path class="cls-9" d="M812.12,550.38l-30.43,18-10.67.49a88.67,88.67,0,0,1,3.11-10.46,33.4,33.4,0,0,0,1.55-6.2c1.15-6.46,2.15-16.11,2.87-25,.57-7.06,2.84-27.33,4.75-44h0l.12-1.08c.22-1.91.43-3.76.64-5.53.13-1.14.26-2.25.38-3.31.25-2.15.48-4.13.68-5.9.4-3.41.7-6,.86-7.38.08-.72.13-1.11.13-1.11s.29-1.69.75-4.49c13.72-8.82,22.08-13.46,22.08-19.5Z" transform="translate(-314.01 -30.27)"/><path class="cls-15" d="M445.1,715.86c-3.86-1.49-10-4.34-21-8.27-6-2.13-14.81-5.07-19.62-7.82a40.53,40.53,0,0,0-5.19-2.53c-2.6-1-2.78-.8-4.76-1.59-3.7-1.47-4.51-2.88-9.27-5.49-1.67-.92-3.07-1.56-3.92-1.94a24.28,24.28,0,0,1-2.56-1.37,26.28,26.28,0,0,1-3.13-2.34c-1.71,1.5-3.44,3-5.13,4.51l-.32.28,7.64,2.22,45.63,28.2-.62,2.86s45.17,3.27,50.61,4.36,52.31,2.15,52.31,2.15C472.79,724.53,453.13,719,445.1,715.86Z" transform="translate(-314.01 -30.27)"/><path class="cls-15" d="M423.44,719.72l-.62,2.86-34.75-11L363,694l.3-.25,6.64-4.47,7.88,2.29Z" transform="translate(-314.01 -30.27)"/><path class="cls-15" d="M422.82,722.58s-2.1.15-7.15,0a13.48,13.48,0,0,1-8-2.62,17.63,17.63,0,0,0-7.9-3.68l-26.35-.79s-14.24-.43-18.8-.15-6.6-2.15-6.6-2.15c-5.6-2,12.37-17.14,14.94-19.27l25.08,17.68Z" transform="translate(-314.01 -30.27)"/><path class="cls-16" d="M654.84,209.3s-5-15.79-5.41-21.79a12.4,12.4,0,0,0-5.27-9.08l-8.72.91.73,12.12,3.09,17.84,7.08,3.28,6,1.63" transform="translate(-314.01 -30.27)"/><path class="cls-17" d="M779.48,238.81c-2.71-5.8-2.25-7-5.89-48.14-4.16-47-5.28-51.33-7.74-57.15-.77-1.83-9.91-22.88-28.36-36.45a61,61,0,0,0-18.42-9.63,62.21,62.21,0,0,0-15.86-2.68,67.8,67.8,0,0,0-29.36,5.41c-18.64,8.26-27.06,27.24-33.43,40.59-5.8,12.15-18.79,69.85-20.72,77.58s-6.91,19.06-10.23,26.24c-4.71,10.21-5.91,17.08-5,25.26a38.81,38.81,0,0,0,4.72,14.43h0a30.18,30.18,0,0,1-1.69-4.63c-1.93-7-.78-13.12.46-19.39a74.9,74.9,0,0,1,2.59-9.78c4.42-12.87,11.94-23.1,12.68-22.72.11.06.07.37,0,.53-.83,3.59-.83,17.12-3.59,24.3-7,18.22,4.61,28.2-3.32,43.63A36.7,36.7,0,0,1,605,299.1c1.62-.67,4-1.66,7-2.82,12.64-5,16.62-6.13,22.19-8.5,2.47-1,13.45-5.31,19.65-11.19,10.6-10,9.9-27.06,9.23-33.86A66.42,66.42,0,0,0,659.77,221c-1.21-3.61-4.38-11.89-4.93-11.71a.07.07,0,0,0-.05.06c-.35.85-4,2.64-7,1.47-1-.38-2.16-1.18-3.74-4a26.2,26.2,0,0,1-3.14-9.62c-.26-1.77-.14-1.9-.3-8.42-.17-7.15-.34-8.42.38-8.78s2.4-.22,8.44,7.52a112,112,0,0,1-.17-19c.64-8.5,1.87-21.13,8.65-34.88,3.19-6.48,7.48-15.19,17.14-22,14.9-10.51,31.35-8.37,35.55-8.09,16.76,1.1,21,10.3,28.55,22.45s8.28,26.88,9,31.85c1.7,11.46,2,15.05,2,15.05s.36,6.08.64,6a2.57,2.57,0,0,1,.47-1.76l.21-.2a4.73,4.73,0,0,1,2.69-1.16,3.94,3.94,0,0,1,2.32.68,16.53,16.53,0,0,1,2.45,3.81,18.44,18.44,0,0,1,1.53,6.73c.26,3.8.59,8.69-2.26,13.39a12.64,12.64,0,0,1-4.86,4.78c-.8.42-3.69,2-5.31.82-1.15-.81-1.14-2.59-1.58-2.55s-.38,1-.72,2.42c0,0-.11.47-1,3.2a33.9,33.9,0,0,1-3.24,6.58,58.51,58.51,0,0,1-5.08,7.27,149,149,0,0,0-.55,17.43c.43,14.93.93,26.91,8.7,36.74a35,35,0,0,0,7.93,7.3l14.13,6.31c10.88,9.91,22.63,11.28,26.09,7.4,3.22-3.61,1-13.66-6.8-22.85,0,0-1.69-14.39-5.8-20.32-.13-.18-1.08-1.51-.89-1.67s.44.16.7.36a15.88,15.88,0,0,1,3.44,3.39c2.33,3.45,3.5,5.17,4.21,7.38,2.17,6.75-.72,12.89.37,13.25.24.08.73-.11,1.84-1.84-.15,3.65-.31,7.3-.46,10.95a48.69,48.69,0,0,0,2-13.9C791.34,257.91,784.11,248.7,779.48,238.81Z" transform="translate(-314.01 -30.27)"/><path class="cls-7" d="M774.5,557.72a32.33,32.33,0,0,1-1.57,6.2,89.88,89.88,0,0,0-3.16,10.46l-50,2.24a80.91,80.91,0,0,1-11-4.3c21-1.73,62.73-7.25,65.33-14Z" transform="translate(-314.01 -30.27)"/><path class="cls-18" d="M783.33,460c-15.8,10.36-13.08,30-18,49.59-3.16,12.63-12.88,14-28,18.55-5.1,3.85-10.41,7.42-15.66,11.06-1.51,2.09-3.22,4.08-4.85,6.11,6-1.24,12.4-5.86,17.73-7.26a4.25,4.25,0,0,1,5.33,4.06c-.16,8.3-8.21,15.44-14.28,20.07a31.93,31.93,0,0,1-9.88,5.43l-.71.2a15.88,15.88,0,0,1-1.76,2.11c21.32-1.94,59.48-7.29,61.94-13.83l.46-.56c.09-.49.17-1,.26-1.51,1-6.4,1.94-15.27,2.61-23.53.57-7.06,2.84-27.33,4.75-44h0l.12-1.08c.22-1.91.43-3.76.64-5.53.13-1.14.26-2.25.38-3.31.25-2.15.48-4.13.68-5.9.4-3.41.7-6,.86-7.38.08-.72.13-1.11.13-1.11s.29-1.69.75-4.49C785.72,458.42,784.54,459.18,783.33,460Z" transform="translate(-314.01 -30.27)"/><path class="cls-18" d="M656,531.15c-1-.8-2-1.58-3.12-2.33-8.76-6.2-16.69-13.33-20.65-23.53-.76-1.94-1.22-3.94-1.83-5.92a23.58,23.58,0,0,0-2.68-4.85c-2.87-4.69-3.8-10.25-6-15.22-1.77-3.92-4.66-6.9-7.28-10.23a35,35,0,0,1-3.94-6.21l5.28,24.7s7.71,60.3,9.18,65.75,48.37,11.42,48.37,11.42-6.62-5.61-33.86-20.51C624,535.76,640.15,532.69,656,531.15Z" transform="translate(-314.01 -30.27)"/><path class="cls-9" d="M433.11,700.06" transform="translate(-314.01 -30.27)"/><path class="cls-19" d="M957.72,716.37s30.35,5.39,36.62,2.12,31.42-10,34-13.53,6.13-9.31,6.13-9.31l-21.14-11.06Z" transform="translate(-314.01 -30.27)"/><path class="cls-9" d="M680.35,711.55s2.71,3,2.65,6-1.42,6.4-2.65,6.54-5.18,2.31-8,0-8-5.74-8-5.74L661,714.79l11-9.37,4.26.36" transform="translate(-314.01 -30.27)"/><path class="cls-11" d="M699.66,712.92a10.09,10.09,0,0,0,3.81-1.34,92,92,0,0,0,13.07-12.25c3.75-4,9.67-8.3,11.48-13.42,1.52-4.28,4.4-9.72,3.69-14.41l-9.81.56-11.63-1.36-14.87,2-5.29,16.55,3.33,20.4S697.47,712.84,699.66,712.92Z" transform="translate(-314.01 -30.27)"/><path class="cls-9" d="M692.21,668.54c2-2,4-4,6.66-5a14.37,14.37,0,0,1,5.09-.77,4.25,4.25,0,0,0,1.74-.23,4.57,4.57,0,0,0,1.53-1.41,13.76,13.76,0,0,1,20-1.19c2.5,2.35,4.08,6.12,2.69,9.25-1.14,2.56-3.91,4-6.61,4.72s-5.55,1-8.11,2.11a12.66,12.66,0,0,0-5.13,4.18,22.83,22.83,0,0,1,7-4.62c1.6-.66,3.51-1.12,5-.24a4.22,4.22,0,0,1,1.86,3.58c0,2.3-1.28,4.4-2.71,6.21s-3.79,3.74-6,2.83c-1.26-.52-2-1.8-2.88-2.83a6.24,6.24,0,0,0-3.78-2.23,3.82,3.82,0,0,0-3.84,1.74c.73-2,3.31-2.7,5.27-2a8.58,8.58,0,0,1,4.32,4.32,5.9,5.9,0,0,1,.79,2.42,5.2,5.2,0,0,1-1.3,3.34,9.51,9.51,0,0,1-8.92,3.34,11.8,11.8,0,0,1,4.29-.43,4.09,4.09,0,0,1,3.35,2.42c.71,2.05-.92,4.16-2.64,5.49s-4.2,2.64-6.52,2.16a2.61,2.61,0,0,1,2,3.06,4.27,4.27,0,0,1-2.57,2.94,12.62,12.62,0,0,1-3.95.84c-1.21.12-2.68.12-3.33-.9a3.25,3.25,0,0,1-.34-1.83c.08-4.88.58-10.14-2-14.28a3.64,3.64,0,0,1-.45-4.41c1.25-4,.07-8.28-1.12-12.28C690.32,674.59,688.75,672,692.21,668.54Z" transform="translate(-314.01 -30.27)"/><path class="cls-11" d="M663.56,708.87a93.81,93.81,0,0,0,16.88,4.33,9.83,9.83,0,0,0,.24-3.59l6.54-10.9L654,673.8l-10.75-2.25C643.76,686.18,651.54,701.09,663.56,708.87Z" transform="translate(-314.01 -30.27)"/><path class="cls-9" d="M675.79,671.51a4.46,4.46,0,0,1,2.36,4c-1.07-4.75-6-7.91-10.9-8.12s-9.54,2-13.49,4.85a13.76,13.76,0,0,0-4.8,5.23c-1.63,3.61-.33,8.12,2.53,10.87a15.13,15.13,0,0,0,11,3.77,2.37,2.37,0,0,0,1.21-.28,3,3,0,0,0,.86-1.21A7.33,7.33,0,0,1,672.4,687a7.35,7.35,0,0,0-9.1,6.93c1,3.45,3.05,7,6.48,8.07a6.93,6.93,0,0,0,8.9-7.86c.57,3.83-4.07,6.58-4.57,10.41a5.28,5.28,0,0,0,2.58,5.17,6.45,6.45,0,0,0,6.94-.85,11.22,11.22,0,0,0,3.64-6.3,22.65,22.65,0,0,1-5.85,8.3,10.91,10.91,0,0,0,6,2.67,6.07,6.07,0,0,0,5.68-2.75c1.09-1.93.48-4.77-1.52-5.74a5.06,5.06,0,0,1,.17,7.3l2.58.16a1,1,0,0,0,.72-.15.91.91,0,0,0,.21-.6A35.26,35.26,0,0,0,693.5,697a16,16,0,0,1-1.06-3.86,17.51,17.51,0,0,1,.34-3.88c.67-4.79.32-11.93-2.68-16C687.57,669.79,679.37,669.71,675.79,671.51Z" transform="translate(-314.01 -30.27)"/><path class="cls-15" d="M571.56,610.54c1.17,6.33.58,9.76,2.72,15.35a3.67,3.67,0,0,1,.19.6c.14.22.38.58.76,1.19a4.76,4.76,0,0,0,1,1.33c2.1,2.59,4.29,5.09,6.29,7.77,3.36,4.51,5.23,9.46,7,14.78.28.86.56,1.75.88,2.61.13.22.5,1,.79,1.43,1.35,2.23,2.9,4.31,4.41,6.44,3.34,4.71,6.78,9.35,10,14.14.72,1.06,1.43,2.14,2.12,3.23q-.54-2.64-1.15-5.25a160.53,160.53,0,0,0-4.88-15.52c-4.31-11.59-6.59-13.55-11.78-26.16-2.2-5.36-4.26-11.44-8.38-23.6,0,0-1-2.89-6-17.87a11,11,0,0,1-3.5.07,9.76,9.76,0,0,1-1.64-.36,12.66,12.66,0,0,1-2,.54,11.87,11.87,0,0,1-2.72.19l-2.91,1.06A39.36,39.36,0,0,1,571.56,610.54Z" transform="translate(-314.01 -30.27)"/><path class="cls-15" d="M810.32,624.14c.63-1.08,1.21-2.18,1.8-3.29.14-.25.41-.87.51-1.08.77-2,1.41-4,2-6,1.19-3.83,2.23-7.71,3.66-11.47a53.83,53.83,0,0,1,7.89-14.3c-1.15-4.3-2-6.75-3.91-8.85a12.67,12.67,0,0,0-2.23-1.94l-1.18,3.52c-.93,2.74-4.12,11.38-14.48,38.13-.8,1.87-2,4.63-3.57,7.92-3.41,7.14-5.76,11-9.74,18.15-7,12.44-10.44,18.73-11.17,22.34a118,118,0,0,0-1.58,16.55h0C788.13,663.44,799,643.72,810.32,624.14Z" transform="translate(-314.01 -30.27)"/><path class="cls-20" d="M769.77,574.38s-35.27,15.46-47,15.35" transform="translate(-314.01 -30.27)"/><path class="cls-20" d="M630.13,596.45l.16,1.63a3.69,3.69,0,0,1,0,.58c0,.39.06.79.1,1.19V600c8.14,8.13,23.66,20.67,37.87,15.43Z" transform="translate(-314.01 -30.27)"/><path class="cls-20" d="M626.51,568.85s19.7,16.83,38.7,14.13" transform="translate(-314.01 -30.27)"/><path class="cls-20" d="M675.47,594.38s-37.61-8.33-47-15.34" transform="translate(-314.01 -30.27)"/><path class="cls-20" d="M704.43,601.73l.39.48a.51.51,0,0,1,.06.21l.26.36,0,.05c8.65-.52,24.71-2.49,37-9.91Z" transform="translate(-314.01 -30.27)"/><path class="cls-20" d="M764.77,598.17a6.38,6.38,0,0,1,.15-.66L735,607.29c6.22.05,19-4.26,29.72-8.32A7.55,7.55,0,0,1,764.77,598.17Z" transform="translate(-314.01 -30.27)"/><path class="cls-21" d="M703.39,96.7s-15.53,25.61-30,32.69-33.09,20.16-33.16,26.43S654.9,112,654.9,112Z" transform="translate(-314.01 -30.27)"/><path class="cls-17" d="M700.87,100.37c-4.4,17.12-12,26.21-18.19,31.37-4.33,3.59-14.83,10.91-25.06,20.8a22.88,22.88,0,0,0-6.84,11.08c-.36,1.47-.68,3.59.12,10.17,1.61,13.28,4.29,15.85,2.43,20.52-2.26,5.68-8.6,7.85-8.7,7.72s6.49-3.59,7.81-9.89a12.84,12.84,0,0,0-.73-7.18c-.32-.86-.81-2.16-1.45-3.72-1.39-3.4-2-4.55-2.54-5.81-2.78-6.82-.33-13-2.91-14.08-.83-.36-1.53.08-1.91-.45-.72-1,1.72-2.88,1.64-5.73,0-1.74-1-2.31-1.29-3.54-.46-1.86.64-4.94,7.79-10.17h0l6.6-6.72" transform="translate(-314.01 -30.27)"/><path class="cls-17" d="M697.81,100.53c5.54,14.56,13.34,21.82,19.6,25.78,4.34,2.75,14.75,8.21,25.13,15.93,1.8,1.34,5.55,4.21,7.3,9.07.45,1.25.93,3.07.73,8.89-.4,11.74-2.69,14.21-.56,18.13,2.58,4.75,8.67,6.09,8.76,6s-6.36-2.57-8.12-8a10.67,10.67,0,0,1,.09-6.33c.23-.78.58-2,1-3.38,1-3.09,1.52-4.15,1.9-5.3,2-6.2-.78-11.34,1.54-12.55.75-.38,1.44-.06,1.74-.56.59-1-1.83-2.36-2-4.85-.1-1.53.73-2.11.92-3.21.27-1.67-1-4.25-8.12-8.19h0c-3.06-11.9-4.52-14.29-4.52-14.29L712.38,90.06" transform="translate(-314.01 -30.27)"/><path class="cls-22" d="M712.63,114.23" transform="translate(-314.01 -30.27)"/><ellipse class="cls-23" cx="728.12" cy="180.88" rx="10.53" ry="5.27" transform="translate(-336.12 145.47) rotate(-13.56)"/><ellipse class="cls-23" cx="418.78" cy="150.61" rx="0.01" ry="2.81"/><path class="cls-23" d="M716.47,211c.81,3.17-6,10-13.47,10.46-7.27.42-14.83-5.31-14.5-9,.07-.83.93-1.67,2.63-3.3a45,45,0,0,1,8.85-6.54h0c1.91,1.67,2.35,1.69,2.35,1.69,1.25.08,2.57-1.52,2.57-1.52h0s4.41,2.66,9.36,6.19C716.13,210.27,716.36,210.5,716.47,211Z" transform="translate(-314.01 -30.27)"/><path class="cls-24" d="M729.26,170.22a23.66,23.66,0,0,1-10.12-.1,15.89,15.89,0,0,1-1.65-.47l-2.4.19s12.59,6.6,22.56-1.84l-3.43.28A15.3,15.3,0,0,1,729.26,170.22Z" transform="translate(-314.01 -30.27)"/><ellipse class="cls-23" cx="680.64" cy="183.01" rx="2.81" ry="0.01" transform="translate(-27.66 736.95) rotate(-71.03)"/><path class="cls-24" d="M681.44,171.68a22.28,22.28,0,0,1-5.86,1,10.3,10.3,0,0,1-4.84-.76,20.42,20.42,0,0,1-4.41-1.23l-2.35,0s11.95,7.71,22.63.19l-3.1,0C682.83,171.14,682.14,171.43,681.44,171.68Z" transform="translate(-314.01 -30.27)"/><ellipse class="cls-23" cx="674.22" cy="180.88" rx="5.27" ry="10.53" transform="translate(67.61 784.39) rotate(-80.24)"/><path class="cls-12" d="M701.87,191.67a8.69,8.69,0,0,1-5.24-1.6c1.08,1.41,3.4,3.94,5.92,3.53a8.58,8.58,0,0,0,6.29-5.27A8.28,8.28,0,0,1,701.87,191.67Z" transform="translate(-314.01 -30.27)"/><path class="cls-25" d="M662,155.08s12.52-7.22,24.46-1.63" transform="translate(-314.01 -30.27)"/><path class="cls-25" d="M712.26,153s13.5-5.16,24.41,2.26" transform="translate(-314.01 -30.27)"/><path class="cls-11" d="M983.09,663.12l32.48,20L957,718.22s-64.14.08-85.76,1.88l-41.71,3.46s115.8-14.87,136-28.5S983.09,663.12,983.09,663.12Z" transform="translate(-314.01 -30.27)"/><path class="cls-11" d="M375.62,684.51l15.12-13.23,17-14.73a180.06,180.06,0,0,0,31.64,33.5,183.31,183.31,0,0,0,71.46,35.63s-29.45,2.63-58-7.4-58.32-22.63-58.32-22.63c-2.8-1.44-5.7-3-8.66-4.74Q380.35,687.71,375.62,684.51Z" transform="translate(-314.01 -30.27)"/><path class="cls-11" d="M827.24,317.19,815.8,305.42s14.92,3.07,20.08,11.77,11.17,19.8,11.21,27.52,1,29.39,1.49,34.94a274.85,274.85,0,0,1,0,42c-1.59,18.62-4.45,43.58-7.09,55.57s-7.06,28.46-7.06,28.46c3.87-24.78,6.21-45.93,7.7-62.12,6.22-67.54,1.51-92.76-8.35-114.06A130.72,130.72,0,0,0,827.24,317.19Z" transform="translate(-314.01 -30.27)"/></g><g id="hands"><path class="cls-26" d="M679.12,713.32" transform="translate(-314.01 -30.27)"/><path class="cls-27" d="M607.06,690.5c3.75,5.51,8.26,11,11.16,17,3.27,6.8,3.91,14.15,8.34,20.34l9.38.25-21.87-37.3-8.59-2.63C606,689,606.54,689.73,607.06,690.5Z" transform="translate(-314.01 -30.27)"/><path class="cls-28" d="M754.66,738.28c4-5.87,7.72-12,11.41-18,1.36-2.22,2.75-4.38,4-6.54,1.18-4.35,2.28-8.72,3.54-13.05,1.35-4.64,3.29-9.13,3.69-13.91L738.51,739.1l12.86.19Z" transform="translate(-314.01 -30.27)"/><path class="cls-9" d="M706.56,732.39" transform="translate(-314.01 -30.27)"/><path class="cls-9" d="M679.12,713.32l20.54-.4h11.21s6,2.85,5.31,5.71S715,731,709.5,734.7L704,738.44" transform="translate(-314.01 -30.27)"/><path class="cls-11" d="M709,707.05s5.84-1.09,7.28,1.64,8,4.76,6.21,9.12-14.3,18.21-17.22,19.8c0,0,11.06-11.8,11-15.39s-3.45-10.4-5.36-10.54-9.36.79-9.36.79Z" transform="translate(-314.01 -30.27)"/></g></svg>